{"title":"Stolen.2009.SWESUB.DVDRip.XviD.AC3.(5.1).-Zen_Bud","uid":5699381,"size":1472616886,"categoryP":"video","categoryS":"movies","magnet":"?xt=urn:btih:25964b0ac6218d0a70f290da79b30cb78a3cb392&amp;dn=Stolen.2009.SWESUB.DVDRip.XviD.AC3.%285.1%29.-Zen_Bud&amp;tr=udp%3A%2F%2Ftracker.openbittorrent.com%3A80&amp;tr=udp%3A%2F%2Fopen.demonii.com%3A1337&amp;tr=udp%3A%2F%2Ftracker.coppersurfer.tk%3A6969&amp;tr=udp%3A%2F%2Fexodus.desync.com%3A6969","seeders":0,"leechers":0,"uploader":"Truztan","files":1,"time":1279437172,"description":"General\nComplete name                    : Stolen.2009.avi\nFormat                           : AVI\nFile size                        : 1.37 GiB\nDuration                         : 1h 31mn\nOverall bit rate                 : 2 151 Kbps\n\nVideo\n\nFormat                           : MPEG-4 Visual\nCodec ID/Hint                    : XviD\nDuration                         : 1h 31mn\nBit rate                         : 1 692 Kbps\nWidth                            : 720 pixels\nHeight                           : 352 pixels\nDisplay aspect ratio             : 2.40:1\nStream size                      : 1.08 GiB (79%)\nWriting library                  : XviD 1.1.2 (UTC 2006-11-01)\n\nAudio\n\nFormat                           : AC-3\nDuration                         : 1h 31mn\nBit rate                         : 448 Kbps\nChannel(s)                       : 6 channels\nChannel positions                : Front: L C R, Side: L R, LFE\nSampling rate                    : 48.0 KHz\nStream size                      : 293 MiB (21%)\n\n\n","torrent":{"xt":"urn:btih:25964b0ac6218d0a70f290da79b30cb78a3cb392","amp;dn":"Stolen.2009.SWESUB.DVDRip.XviD.AC3.%285.1%29.-Zen_Bud","amp;tr":["udp%3A%2F%2Ftracker.openbittorrent.com%3A80","udp%3A%2F%2Fopen.demonii.com%3A1337","udp%3A%2F%2Ftracker.coppersurfer.tk%3A6969","udp%3A%2F%2Fexodus.desync.com%3A6969"],"infoHash":"25964b0ac6218d0a70f290da79b30cb78a3cb392","infoHashBuffer":{"type":"Buffer","data":[37,150,75,10,198,33,141,10,112,242,144,218,121,179,12,183,138,60,179,146]},"announce":[],"urlList":[]}}